<?xml version="1.0" encoding="UTF-8"?>
<svg xmlns="http://www.w3.org/2000/svg" viewBox="0 0 1480 1180" width="1480" height="1180">
  <defs>
    <pattern id="grid" width="24" height="24" patternUnits="userSpaceOnUse">
      <path d="M 24 0 L 0 0 0 24" fill="none" stroke="#c5d8e8" stroke-width="0.6" opacity="0.55"/>
    </pattern>
    <marker id="arr-traffic" markerWidth="9" markerHeight="7" refX="8" refY="3.5" orient="auto">
      <polygon points="0 0,9 3.5,0 7" fill="#2563eb"/>
    </marker>
    <marker id="arr-write" markerWidth="9" markerHeight="7" refX="8" refY="3.5" orient="auto">
      <polygon points="0 0,9 3.5,0 7" fill="#ea580c"/>
    </marker>
    <marker id="arr-data" markerWidth="9" markerHeight="7" refX="8" refY="3.5" orient="auto">
      <polygon points="0 0,9 3.5,0 7" fill="#059669"/>
    </marker>
    <marker id="arr-cross" markerWidth="9" markerHeight="7" refX="8" refY="3.5" orient="auto">
      <polygon points="0 0,9 3.5,0 7" fill="#7c3aed"/>
    </marker>
    <style type="text/css"><![CDATA[
      text { font-family: "PingFang SC", "Microsoft YaHei", "Helvetica Neue", Arial, sans-serif; }
      .ttl { font-size: 24px; font-weight: 700; fill: #102a43; }
      .sub { font-size: 12px; fill: #486581; }
      .sec { font-size: 13px; font-weight: 700; fill: #102a43; }
      .nm { font-size: 13px; font-weight: 700; }
      .sm { font-size: 10px; fill: #627d98; }
      .xs { font-size: 10px; fill: #829ab1; }
      .via { font-size: 10px; fill: #2563eb; font-weight: 600; }
      .stamp { font-size: 10px; fill: #486581; }
    ]]></style>
  </defs>

  <rect width="1480" height="1180" fill="#edf5fb"/>
  <rect width="1480" height="1180" fill="url(#grid)"/>

  <text x="40" y="38" class="ttl">电商系统 yz-mall 架构图</text>
  <text x="40" y="60" class="sub">参照《系统架构设计》，融合现状与规划｜Style 10 Cloud Fabric</text>

  <rect x="1020" y="18" width="420" height="54" rx="8" fill="#ffffff" stroke="#7fa3c2" stroke-width="1"/>
  <text x="1036" y="36" class="stamp">平台: provider-neutral</text>
  <text x="1036" y="52" class="stamp">部署: single-region / hybrid</text>
  <text x="1220" y="36" class="stamp">模式: 微服务 + 五层分层</text>

  <rect x="28" y="80" width="1424" height="1020" rx="14" fill="#ffffff" fill-opacity="0.35" stroke="#7fa3c2" stroke-width="1.6"/>

  <rect x="48" y="96" width="58" height="16" rx="3" fill="#2563eb"/>
  <text x="77" y="108" text-anchor="middle" font-size="9" font-weight="700" fill="#ffffff">GLOBAL</text>
  <text x="114" y="108" class="sec">yz-mall 电商平台</text><line x1="44" y1="120" x2="44" y2="1080" stroke="#2563eb" stroke-width="3" stroke-linecap="round" opacity="0.55"/>
  <rect x="56" y="130" width="1368" height="150" rx="12" fill="#ffffff" stroke="#7fa3c2" stroke-width="1.3"/>

  <rect x="72" y="142" width="58" height="16" rx="3" fill="#0f766e"/>
  <text x="101" y="154" text-anchor="middle" font-size="9" font-weight="700" fill="#ffffff">REGION</text>
  <text x="138" y="154" class="sec">接入与网关</text><line x1="68" y1="164" x2="68" y2="268" stroke="#0f766e" stroke-width="3" stroke-linecap="round" opacity="0.55"/>
  <rect x="88" y="170" width="420" height="92" rx="10" fill="#f8fbfe" stroke="#b6cfe3" stroke-width="1"/>

  <rect x="100" y="180" width="58" height="16" rx="3" fill="#7c3aed"/>
  <text x="129" y="192" text-anchor="middle" font-size="9" font-weight="700" fill="#ffffff">NETWORK</text>
  <text x="166" y="192" class="sec">客户端</text>
  <rect x="112" y="204" width="180" height="48" rx="8" fill="#ffffff" stroke="#7fa3c2" stroke-width="1.4"/>
  <text x="126" y="228" class="nm" fill="#102a43">管理端 Web</text>
  <text x="126" y="246" class="sm">yz-mall-web-admin-pc / Vue3</text>
  <rect x="308" y="204" width="180" height="48" rx="8" fill="#ffffff" stroke="#7fa3c2" stroke-width="1.4"/>
  <text x="322" y="228" class="nm" fill="#102a43">Nginx （可选）</text>
  <text x="322" y="246" class="sm">反代 / HTTPS / 静态资源</text>
  <rect x="540" y="170" width="860" height="92" rx="10" fill="#f8fbfe" stroke="#b6cfe3" stroke-width="1"/>

  <rect x="552" y="180" width="58" height="16" rx="3" fill="#7c3aed"/>
  <text x="581" y="192" text-anchor="middle" font-size="9" font-weight="700" fill="#ffffff">NETWORK</text>
  <text x="618" y="192" class="sec">边缘网关</text>
  <rect x="620" y="204" width="420" height="48" rx="8" fill="#ffffff" stroke="#2563eb" stroke-width="1.4"/>
  <text x="634" y="228" class="nm" fill="#102a43">mall-gateway</text>
  <text x="634" y="246" class="sm">:30001 路由转发 / Sa-Token / 限流熔断</text>
    <rect x="996" y="212" width="36" height="16" rx="3" fill="#2563eb" opacity="0.12"/>
    <text x="1014.0" y="224" text-anchor="middle" font-size="9" fill="#2563eb" font-weight="600">已有</text>
  <rect x="1060" y="204" width="300" height="48" rx="8" fill="#ffffff" stroke="#2563eb" stroke-width="1.4"/>
  <text x="1074" y="228" class="nm" fill="#102a43">Sa-Token Filter</text>
  <text x="1074" y="246" class="sm">checkLogin / 白名单放行</text>
  <path d="M292 228 H540" fill="none" stroke="#2563eb" stroke-width="2" marker-end="url(#arr-traffic)"/>
  <text x="400" y="220" class="via" text-anchor="middle">via: HTTP /api 代理</text>

  <rect x="56" y="300" width="1368" height="360" rx="12" fill="#ffffff" stroke="#7fa3c2" stroke-width="1.3"/>

  <rect x="72" y="312" width="58" height="16" rx="3" fill="#0f766e"/>
  <text x="101" y="324" text-anchor="middle" font-size="9" font-weight="700" fill="#ffffff">REGION</text>
  <text x="138" y="324" class="sec">业务微服务</text><line x1="68" y1="334" x2="68" y2="648" stroke="#0f766e" stroke-width="3" stroke-linecap="round" opacity="0.55"/>
  <rect x="88" y="340" width="900" height="200" rx="10" fill="#f8fbfe" stroke="#b6cfe3" stroke-width="1"/>

  <rect x="100" y="350" width="58" height="16" rx="3" fill="#7c3aed"/>
  <text x="129" y="362" text-anchor="middle" font-size="9" font-weight="700" fill="#ffffff">NETWORK</text>
  <text x="166" y="362" class="sec">已有服务</text>
  <rect x="112" y="378" width="200" height="52" rx="8" fill="#ffffff" stroke="#2563eb" stroke-width="1.4"/>
  <text x="126" y="402" class="nm" fill="#102a43">mall-sys</text>
  <text x="126" y="420" class="sm">:30004 菜单/权限/字典/文件</text>
    <rect x="268" y="386" width="36" height="16" rx="3" fill="#2563eb" opacity="0.12"/>
    <text x="286.0" y="398" text-anchor="middle" font-size="9" fill="#2563eb" font-weight="600">已有</text>
  <rect x="328" y="378" width="200" height="52" rx="8" fill="#ffffff" stroke="#059669" stroke-width="1.4"/>
  <text x="342" y="402" class="nm" fill="#102a43">mall-auth</text>
  <text x="342" y="420" class="sm">嵌入 sys：登录/授权</text>
    <rect x="484" y="386" width="36" height="16" rx="3" fill="#059669" opacity="0.12"/>
    <text x="502.0" y="398" text-anchor="middle" font-size="9" fill="#059669" font-weight="600">已有</text>
  <rect x="544" y="378" width="200" height="52" rx="8" fill="#ffffff" stroke="#059669" stroke-width="1.4"/>
  <text x="558" y="402" class="nm" fill="#102a43">mall-serial</text>
  <text x="558" y="420" class="sm">流水号（嵌入 sys）</text>
    <rect x="700" y="386" width="36" height="16" rx="3" fill="#059669" opacity="0.12"/>
    <text x="718.0" y="398" text-anchor="middle" font-size="9" fill="#059669" font-weight="600">已有</text>
  <rect x="760" y="378" width="200" height="52" rx="8" fill="#ffffff" stroke="#059669" stroke-width="1.4"/>
  <text x="774" y="402" class="nm" fill="#102a43">mall-file</text>
  <text x="774" y="420" class="sm">文件服务（由 sys 承载）</text>
    <rect x="916" y="386" width="36" height="16" rx="3" fill="#059669" opacity="0.12"/>
    <text x="934.0" y="398" text-anchor="middle" font-size="9" fill="#059669" font-weight="600">已有</text>
  <rect x="220" y="448" width="230" height="52" rx="8" fill="#ffffff" stroke="#2563eb" stroke-width="1.4"/>
  <text x="234" y="472" class="nm" fill="#102a43">mall-pms</text>
  <text x="234" y="490" class="sm">:30005 商品/SKU/库存/购物车</text>
    <rect x="406" y="456" width="36" height="16" rx="3" fill="#2563eb" opacity="0.12"/>
    <text x="424.0" y="468" text-anchor="middle" font-size="9" fill="#2563eb" font-weight="600">已有</text>
  <rect x="480" y="448" width="230" height="52" rx="8" fill="#ffffff" stroke="#2563eb" stroke-width="1.4"/>
  <text x="494" y="472" class="nm" fill="#102a43">mall-oms</text>
  <text x="494" y="490" class="sm">:30006 订单/状态流转</text>
    <rect x="666" y="456" width="36" height="16" rx="3" fill="#2563eb" opacity="0.12"/>
    <text x="684.0" y="468" text-anchor="middle" font-size="9" fill="#2563eb" font-weight="600">已有</text>
  <rect x="1010" y="340" width="390" height="200" rx="10" fill="#fff7ed" stroke="#fdba74" stroke-width="1"/>

  <rect x="1022" y="350" width="58" height="16" rx="3" fill="#7c3aed"/>
  <text x="1051" y="362" text-anchor="middle" font-size="9" font-weight="700" fill="#ffffff">NETWORK</text>
  <text x="1088" y="362" class="sec">第一阶段规划</text>
  <rect x="1034" y="378" width="160" height="48" rx="8" fill="#ffffff" stroke="#ea580c" stroke-width="1.4"/>
  <text x="1048" y="402" class="nm" fill="#102a43">mall-ums</text>
  <text x="1048" y="420" class="sm">:30010 用户/地址</text>
    <rect x="1150" y="386" width="36" height="16" rx="3" fill="#ea580c" opacity="0.12"/>
    <text x="1168.0" y="398" text-anchor="middle" font-size="9" fill="#ea580c" font-weight="600">规划</text>
  <rect x="1210" y="378" width="160" height="48" rx="8" fill="#ffffff" stroke="#ea580c" stroke-width="1.4"/>
  <text x="1224" y="402" class="nm" fill="#102a43">mall-cart</text>
  <text x="1224" y="420" class="sm">:30011 购物车/结算</text>
    <rect x="1326" y="386" width="36" height="16" rx="3" fill="#ea580c" opacity="0.12"/>
    <text x="1344.0" y="398" text-anchor="middle" font-size="9" fill="#ea580c" font-weight="600">规划</text>
  <rect x="1100" y="448" width="200" height="52" rx="8" fill="#ffffff" stroke="#ea580c" stroke-width="1.4"/>
  <text x="1114" y="472" class="nm" fill="#102a43">mall-pay</text>
  <text x="1114" y="490" class="sm">:30012 假支付/接口预留</text>
    <rect x="1256" y="456" width="36" height="16" rx="3" fill="#ea580c" opacity="0.12"/>
    <text x="1274.0" y="468" text-anchor="middle" font-size="9" fill="#ea580c" font-weight="600">规划</text>
  <rect x="88" y="556" width="1312" height="86" rx="10" fill="#f5f3ff" stroke="#c4b5fd" stroke-width="1"/>

  <rect x="100" y="566" width="58" height="16" rx="3" fill="#7c3aed"/>
  <text x="129" y="578" text-anchor="middle" font-size="9" font-weight="700" fill="#ffffff">NETWORK</text>
  <text x="166" y="578" class="sec">后续扩展</text>
  <rect x="280" y="580" width="280" height="48" rx="8" fill="#ffffff" stroke="#7c3aed" stroke-width="1.4"/>
  <text x="294" y="604" class="nm" fill="#102a43">mall-sms</text>
  <text x="294" y="622" class="sm">:30013 优惠券/促销</text>
    <rect x="516" y="588" width="36" height="16" rx="3" fill="#7c3aed" opacity="0.12"/>
    <text x="534.0" y="600" text-anchor="middle" font-size="9" fill="#7c3aed" font-weight="600">后续</text>
  <rect x="590" y="580" width="280" height="48" rx="8" fill="#ffffff" stroke="#7c3aed" stroke-width="1.4"/>
  <text x="604" y="604" class="nm" fill="#102a43">mall-scm</text>
  <text x="604" y="622" class="sm">:30014 供应链/采购</text>
    <rect x="826" y="588" width="36" height="16" rx="3" fill="#7c3aed" opacity="0.12"/>
    <text x="844.0" y="600" text-anchor="middle" font-size="9" fill="#7c3aed" font-weight="600">后续</text>
  <rect x="900" y="580" width="320" height="48" rx="8" fill="#ffffff" stroke="#7c3aed" stroke-width="1.4"/>
  <text x="914" y="604" class="nm" fill="#102a43">mall-logistics</text>
  <text x="914" y="622" class="sm">:30015 发货/物流跟踪</text>
    <rect x="1176" y="588" width="36" height="16" rx="3" fill="#7c3aed" opacity="0.12"/>
    <text x="1194.0" y="600" text-anchor="middle" font-size="9" fill="#7c3aed" font-weight="600">后续</text>
  <path d="M760 252 V300" fill="none" stroke="#2563eb" stroke-width="2" marker-end="url(#arr-traffic)"/>
  <text x="780" y="280" class="via">via: Gateway Route</text>
  <path d="M212 252 C212 280, 212 300, 212 340" fill="none" stroke="#2563eb" stroke-width="1.6" marker-end="url(#arr-traffic)"/>
  <text x="230" y="300" class="via">via: Sa-Token 鉴权</text>

  <path d="M480 474 H450" fill="none" stroke="#ea580c" stroke-width="1.6" marker-end="url(#arr-write)"/>
  <path d="M595 448 V430 H212" fill="none" stroke="#ea580c" stroke-width="1.4" stroke-dasharray="5,3" marker-end="url(#arr-write)"/>
  <text x="360" y="438" class="via">via: OpenFeign Extend*</text>
  <path d="M1010 470 H740" fill="none" stroke="#7c3aed" stroke-width="1.4" stroke-dasharray="6,4" marker-end="url(#arr-cross)"/>
  <text x="860" y="462" class="xs">via: 规划依赖 oms/pms</text>

  <rect x="56" y="680" width="900" height="200" rx="12" fill="#ffffff" stroke="#7fa3c2" stroke-width="1.3"/>

  <rect x="72" y="692" width="58" height="16" rx="3" fill="#0f766e"/>
  <text x="101" y="704" text-anchor="middle" font-size="9" font-weight="700" fill="#ffffff">REGION</text>
  <text x="138" y="704" class="sec">中间件与数据</text><line x1="68" y1="714" x2="68" y2="868" stroke="#0f766e" stroke-width="3" stroke-linecap="round" opacity="0.55"/>
  <rect x="100" y="726" width="190" height="52" rx="8" fill="#ffffff" stroke="#059669" stroke-width="1.4"/>
  <text x="114" y="750" class="nm" fill="#102a43">Nacos</text>
  <text x="114" y="768" class="sm">注册中心 + 配置中心</text>
  <rect x="310" y="726" width="190" height="52" rx="8" fill="#ffffff" stroke="#059669" stroke-width="1.4"/>
  <text x="324" y="750" class="nm" fill="#102a43">MySQL</text>
  <text x="324" y="768" class="sm">业务库 / MyBatis-Plus</text>
  <rect x="520" y="726" width="190" height="52" rx="8" fill="#ffffff" stroke="#059669" stroke-width="1.4"/>
  <text x="534" y="750" class="nm" fill="#102a43">Redis / Redisson</text>
  <text x="534" y="768" class="sm">缓存 / 会话 / 分布式锁</text>
  <rect x="730" y="726" width="190" height="52" rx="8" fill="#ffffff" stroke="#059669" stroke-width="1.4"/>
  <text x="744" y="750" class="nm" fill="#102a43">RocketMQ</text>
  <text x="744" y="768" class="sm">异步消息 / 事务消息</text>
  <rect x="100" y="800" width="190" height="52" rx="8" fill="#ffffff" stroke="#059669" stroke-width="1.4"/>
  <text x="114" y="824" class="nm" fill="#102a43">XXL-JOB</text>
  <text x="114" y="842" class="sm">分布式任务调度</text>
  <rect x="310" y="800" width="190" height="52" rx="8" fill="#ffffff" stroke="#059669" stroke-width="1.4"/>
  <text x="324" y="824" class="nm" fill="#102a43">Elasticsearch</text>
  <text x="324" y="842" class="sm">商品搜索 / 日志存储</text>
  <rect x="520" y="800" width="190" height="52" rx="8" fill="#ffffff" stroke="#ea580c" stroke-width="1.4"/>
  <text x="534" y="824" class="nm" fill="#102a43">Seata</text>
  <text x="534" y="842" class="sm">分布式事务（规划/POC）</text>
    <rect x="666" y="808" width="36" height="16" rx="3" fill="#ea580c" opacity="0.12"/>
    <text x="684.0" y="820" text-anchor="middle" font-size="9" fill="#ea580c" font-weight="600">规划</text>
  <rect x="980" y="680" width="444" height="200" rx="12" fill="#ffffff" stroke="#7fa3c2" stroke-width="1.3"/>

  <rect x="996" y="692" width="58" height="16" rx="3" fill="#0f766e"/>
  <text x="1025" y="704" text-anchor="middle" font-size="9" font-weight="700" fill="#ffffff">REGION</text>
  <text x="1062" y="704" class="sec">可观测与运维</text><line x1="992" y1="714" x2="992" y2="868" stroke="#0f766e" stroke-width="3" stroke-linecap="round" opacity="0.55"/>
  <rect x="1010" y="726" width="180" height="52" rx="8" fill="#ffffff" stroke="#2563eb" stroke-width="1.4"/>
  <text x="1024" y="750" class="nm" fill="#102a43">Prometheus</text>
  <text x="1024" y="768" class="sm">指标采集</text>
  <rect x="1210" y="726" width="180" height="52" rx="8" fill="#ffffff" stroke="#2563eb" stroke-width="1.4"/>
  <text x="1224" y="750" class="nm" fill="#102a43">Grafana</text>
  <text x="1224" y="768" class="sm">可视化监控</text>
  <rect x="1010" y="800" width="180" height="52" rx="8" fill="#ffffff" stroke="#2563eb" stroke-width="1.4"/>
  <text x="1024" y="824" class="nm" fill="#102a43">SkyWalking</text>
  <text x="1024" y="842" class="sm">链路追踪</text>
  <rect x="1210" y="800" width="180" height="52" rx="8" fill="#ffffff" stroke="#2563eb" stroke-width="1.4"/>
  <text x="1224" y="824" class="nm" fill="#102a43">ELK Stack</text>
  <text x="1224" y="842" class="sm">Filebeat / Logstash / Kibana</text>
  <path d="M335 540 V680" fill="none" stroke="#059669" stroke-width="1.8" marker-end="url(#arr-data)"/>
  <text x="350" y="620" class="via">via: JDBC / Redis / MQ</text>
  <path d="M212 430 C120 500, 120 640, 195 726" fill="none" stroke="#059669" stroke-width="1.5" marker-end="url(#arr-data)"/>
  <text x="100" y="600" class="via">via: Nacos Discovery</text>
  <path d="M760 540 C900 600, 1050 640, 1100 726" fill="none" stroke="#2563eb" stroke-width="1.5" stroke-dasharray="4,3" marker-end="url(#arr-traffic)"/>
  <text x="980" y="650" class="xs">via: metrics / logs / traces</text>

  <rect x="56" y="900" width="1368" height="180" rx="12" fill="#ffffff" stroke="#7fa3c2" stroke-width="1.2"/>
  <text x="80" y="928" class="sec">图例</text>

  <line x1="80" y1="952" x2="130" y2="952" stroke="#2563eb" stroke-width="2.5"/>
  <text x="140" y="956" class="sm">请求流</text>
  <line x1="260" y1="952" x2="310" y2="952" stroke="#ea580c" stroke-width="2.5"/>
  <text x="320" y="956" class="sm">写路径 / Feign</text>
  <line x1="460" y1="952" x2="510" y2="952" stroke="#059669" stroke-width="2.5"/>
  <text x="520" y="956" class="sm">数据访问</text>
  <line x1="650" y1="952" x2="710" y2="952" stroke="#7c3aed" stroke-width="2" stroke-dasharray="6,4"/>
  <text x="720" y="956" class="sm">跨区域/规划依赖</text>

  <rect x="80" y="980" width="40" height="18" rx="3" fill="#2563eb" opacity="0.15" stroke="#2563eb"/>
  <text x="130" y="993" class="sm">已有</text>
  <rect x="200" y="980" width="40" height="18" rx="3" fill="#ea580c" opacity="0.15" stroke="#ea580c"/>
  <text x="250" y="993" class="sm">规划</text>
  <rect x="320" y="980" width="40" height="18" rx="3" fill="#7c3aed" opacity="0.15" stroke="#7c3aed"/>
  <text x="370" y="993" class="sm">后续</text>

  <text x="80" y="1030" class="sm">说明：auth/serial/file 现状嵌入 mall-sys；ums/cart/pay 为设计文档第一阶段；sms/scm/logistics 为后续扩展。</text>
  <text x="80" y="1052" class="sm">服务内部五层: interface / dao / core / feign / startup</text>
  <text x="80" y="1074" class="xs">Docker / Kubernetes / Prometheus AlertManager 容器化部署（规划）</text>
</svg>
